<?xml version="1.0" standalone="no"?>
<!DOCTYPE svg PUBLIC "-//W3C//DTD SVG 20010904//EN"
 "http://www.w3.org/TR/2001/REC-SVG-20010904/DTD/svg10.dtd">
<svg version="1.0" xmlns="http://www.w3.org/2000/svg"
 width="120.000000pt" height="120.000000pt" viewBox="0 0 120.000000 120.000000"
 preserveAspectRatio="xMidYMid meet">

<g transform="translate(0.000000,120.000000) scale(0.100000,-0.100000)"
fill="#000000" stroke="none">
<path d="M180 710 l0 -160 75 0 c130 0 189 50 190 160 0 110 -62 160 -195 160
l-70 0 0 -160z m170 80 c25 -25 34 -61 27 -108 -8 -47 -38 -72 -88 -72 l-39 0
0 100 0 100 40 0 c26 0 47 -7 60 -20z"/>
<path d="M500 710 l0 -160 105 0 105 0 0 30 0 30 -75 0 -75 0 0 35 0 35 70 0
70 0 0 30 0 30 -70 0 -70 0 0 35 0 35 75 0 75 0 0 30 0 30 -105 0 -105 0 0
-160z"/>
<path d="M751 863 c0 -4 24 -75 52 -158 l52 -150 45 -3 45 -3 53 154 c28 85
52 157 52 161 0 4 -16 6 -36 4 l-36 -3 -36 -112 c-20 -62 -38 -113 -42 -113
-3 0 -21 51 -40 113 l-35 112 -38 3 c-20 2 -37 0 -36 -5z"/>
</g>
</svg>
